<svg width="44" height="44" viewBox="0 0 44 44" fill="none" xmlns="http://www.w3.org/2000/svg">
<rect x="5" y="4" width="34" height="34" fill="white"/>
<rect x="10" y="18.8824" width="14.8235" height="14.1176" rx="1" fill="#FAA05A"/>
<rect x="19.8823" y="9" width="14.1176" height="24" rx="1" fill="#FAA05A"/>
<rect x="11.4117" y="21.7059" width="2.82353" height="2.11765" rx="0.5" fill="white"/>
<rect x="15.6471" y="21.7059" width="2.82353" height="2.11765" rx="0.5" fill="white"/>
<rect x="11.4117" y="25.2353" width="2.82353" height="2.11765" rx="0.5" fill="white"/>
<rect x="15.6471" y="25.2353" width="2.82353" height="2.11765" rx="0.5" fill="white"/>
<rect x="21.2941" y="11.1176" width="2.82353" height="2.11765" rx="0.5" fill="white"/>
<rect x="25.5294" y="11.1176" width="2.82353" height="2.11765" rx="0.5" fill="white"/>
<rect x="29.7646" y="11.1176" width="2.82353" height="2.11765" rx="0.5" fill="white"/>
<rect x="21.2941" y="14.6471" width="2.82353" height="2.11765" rx="0.5" fill="white"/>
<rect x="25.5294" y="14.6471" width="2.82353" height="2.11765" rx="0.5" fill="white"/>
<rect x="29.7646" y="14.6471" width="2.82353" height="2.11765" rx="0.5" fill="white"/>
<rect x="21.2941" y="18.1765" width="2.82353" height="2.11765" rx="0.5" fill="white"/>
<rect x="25.5294" y="18.1765" width="2.82353" height="2.11765" rx="0.5" fill="white"/>
<rect x="29.7646" y="18.1765" width="2.82353" height="2.11765" rx="0.5" fill="white"/>
<rect x="21.2941" y="21.7059" width="2.82353" height="2.11765" rx="0.5" fill="white"/>
<rect x="25.5294" y="21.7059" width="2.82353" height="2.11765" rx="0.5" fill="white"/>
<rect x="29.7646" y="21.7059" width="2.82353" height="2.11765" rx="0.5" fill="white"/>
<rect x="21.2941" y="25.2353" width="2.82353" height="2.11765" rx="0.5" fill="white"/>
<rect x="25.5294" y="25.2353" width="2.82353" height="2.11765" rx="0.5" fill="white"/>
<rect x="29.7646" y="25.2353" width="2.82353" height="2.11765" rx="0.5" fill="white"/>
<path d="M24.5 30C24.5 29.4477 24.9477 29 25.5 29H28.5C29.0523 29 29.5 29.4477 29.5 30V33H24.5V30Z" fill="white"/>
</svg>
