<svg width="44" height="44" viewBox="0 0 44 44" fill="none" xmlns="http://www.w3.org/2000/svg">
<rect x="5" y="4" width="34" height="34" fill="white"/>
<g clip-path="url(#clip0)">
<path d="M22.7033 26.8345H18.7486C17.8485 26.8341 16.9693 27.1 16.2274 27.597L10 31.75H17.8892L26.0134 25.8593C25.0311 26.4917 23.8806 26.8307 22.7033 26.8345Z" fill="#6BD1CC"/>
<path d="M10 10L16.214 14.2544C16.9654 14.7653 17.8594 15.0394 18.7755 15.0399H22.7033C23.9329 15.0395 25.1334 15.4049 26.1444 16.0871L18.5942 10H10Z" fill="#6BD1CC"/>
<path d="M22.8443 10H18.5942L26.1443 16.0773C26.4288 16.2735 26.696 16.4924 26.9433 16.7318L27.0272 16.7973L26.9433 16.7318C27.5185 17.2806 27.9755 17.9359 28.2873 18.6591C28.5992 19.3824 28.7597 20.1591 28.7595 20.9437C28.7595 21.8032 28.5665 22.6522 28.1942 23.4313C27.8219 24.2103 27.2792 24.9005 26.6042 25.4534L26.7553 25.3454L26.6042 25.4534C26.4158 25.6041 26.2185 25.744 26.0134 25.8723L17.8892 31.7631H22.8443C24.3104 31.7631 25.7621 31.4814 27.1165 30.934C28.4708 30.3867 29.7012 29.5845 30.7373 28.5732C31.7734 27.562 32.5948 26.3616 33.1546 25.0407C33.7145 23.7198 34.0017 22.3042 33.9999 20.875C33.9999 17.9908 32.8246 15.2247 30.7325 13.1852C28.6404 11.1458 25.8029 10 22.8443 10V10Z" fill="#6BD1CC"/>
<path d="M22.8207 16.3358C24.0557 16.3358 25.24 16.8141 26.1133 17.6653C26.9865 18.5166 27.4771 19.6711 27.4771 20.875C27.4771 22.0789 26.9865 23.2334 26.1133 24.0847C25.24 24.9359 24.0557 25.4142 22.8207 25.4142C21.5858 25.4142 20.4015 24.9359 19.5282 24.0847C18.655 23.2334 18.1644 22.0789 18.1644 20.875C18.1644 19.6711 18.655 18.5166 19.5282 17.6653C20.4015 16.8141 21.5858 16.3358 22.8207 16.3358Z" fill="#6BD1CC"/>
</g>
<defs>
<clipPath id="clip0">
<rect width="24" height="21.75" fill="white" transform="translate(10 10)"/>
</clipPath>
</defs>
</svg>
