<svg width="44" height="44" viewBox="0 0 44 44" fill="none" xmlns="http://www.w3.org/2000/svg">
<rect x="5" y="4" width="34" height="34" fill="white"/>
<path fill-rule="evenodd" clip-rule="evenodd" d="M31.9091 18.4545C31.9091 18.62 31.9048 18.7844 31.8965 18.9478C31.9049 19.1434 31.9091 19.3427 31.9091 19.5454C31.9091 26.8182 22.4545 33 22.4545 33C22.4545 33 13 26.8182 13 19.5454C13 19.3337 13.0038 19.1258 13.0113 18.9218C13.0038 18.767 13 18.6112 13 18.4545C13 13.2329 17.2329 9 22.4545 9C27.6762 9 31.9091 13.2329 31.9091 18.4545ZM22.4546 23.5455C25.2662 23.5455 27.5455 21.2662 27.5455 18.4546C27.5455 15.6429 25.2662 13.3636 22.4546 13.3636C19.6429 13.3636 17.3636 15.6429 17.3636 18.4546C17.3636 21.2662 19.6429 23.5455 22.4546 23.5455Z" fill="#F0506E"/>
</svg>
