<svg width="44" height="44" viewBox="0 0 44 44" fill="none" xmlns="http://www.w3.org/2000/svg">
<rect x="5" y="4" width="34" height="34" fill="white"/>
<path fill-rule="evenodd" clip-rule="evenodd" d="M33.9249 20.1344C33.887 19.8139 33.4936 19.5731 33.1534 19.5731C32.0537 19.5731 31.0779 18.9596 30.6686 18.0109C30.2505 17.0392 30.5201 15.906 31.3397 15.1918C31.5977 14.9677 31.629 14.5927 31.4126 14.3321C30.8498 13.6531 30.21 13.0398 29.5115 12.5082C29.238 12.2997 28.8367 12.3287 28.5995 12.5782C27.8842 13.3308 26.5994 13.6105 25.6066 13.2169C24.5734 12.804 23.9218 11.8094 23.9856 10.7418C24.0066 10.4064 23.7486 10.1148 23.3967 10.0759C22.5003 9.97742 21.596 9.97436 20.697 10.0691C20.349 10.1056 20.0911 10.3903 20.1028 10.7214C20.1419 11.7785 19.4825 12.7558 18.4595 13.1538C17.4786 13.5344 16.2028 13.2571 15.4889 12.5113C15.253 12.2656 14.8582 12.2354 14.5833 12.4389C13.8641 12.975 13.21 13.5888 12.6419 14.2622C12.4204 14.524 12.453 14.9035 12.7136 15.1287C13.5488 15.8473 13.8185 16.9904 13.3846 17.9733C12.9703 18.9103 11.946 19.5143 10.7734 19.5143C10.3929 19.5027 10.1219 19.7453 10.0803 20.0739C9.97475 20.9304 9.9735 21.8031 10.0751 22.6666C10.1128 22.9884 10.5181 23.2271 10.862 23.2271C11.907 23.2018 12.9103 23.8164 13.3312 24.7894C13.7507 25.7611 13.481 26.8936 12.6602 27.6084C12.4034 27.8325 12.3708 28.2069 12.5872 28.4675C13.1448 29.1422 13.7846 29.7561 14.4856 30.2921C14.7606 30.5026 15.1606 30.4729 15.399 30.2234C16.117 29.4689 17.4017 29.1897 18.3906 29.5841C19.4264 29.9957 20.0779 30.9902 20.0142 32.0584C19.9934 32.394 20.2526 32.686 20.6031 32.7244C21.0617 32.7752 21.523 32.8006 21.9855 32.8006C22.4246 32.8006 22.8638 32.7777 23.3029 32.7313C23.6509 32.6948 23.9087 32.4101 23.897 32.0784C23.8567 31.0218 24.5173 30.0446 25.5389 29.6473C26.5264 29.2641 27.7969 29.5445 28.5108 30.2896C28.7481 30.5348 29.1401 30.5644 29.4165 30.3616C30.1344 29.8268 30.7872 29.2134 31.3579 28.5381C31.5794 28.2769 31.5481 27.8969 31.2862 27.6717C30.451 26.9532 30.1799 25.8099 30.6139 24.8277C31.0218 23.9031 32.008 23.2823 33.0688 23.2823L33.2172 23.2859C33.5613 23.3125 33.8778 23.0607 33.9195 22.727C34.0253 21.8698 34.0265 20.9979 33.9249 20.1344ZM22.019 25.227C19.8117 25.227 18.0162 23.5213 18.0162 21.4244C18.0162 19.3275 19.8117 17.6218 22.019 17.6218C24.2262 17.6218 26.0217 19.3275 26.0217 21.4244C26.0217 23.5213 24.2262 25.227 22.019 25.227Z" fill="#80BDFF"/>
</svg>
