<svg xmlns="http://www.w3.org/2000/svg" viewBox="0 0 169.17 175.5"><defs><style>.cls-1{fill:#66b1eb;}.cls-2,.cls-3{fill:none;stroke-linecap:round;stroke-linejoin:round;}.cls-2,.cls-3,.cls-4,.cls-5{stroke:#fff;}.cls-2{stroke-width:4.39px;}.cls-3{stroke-width:5px;}.cls-4,.cls-5{fill:#45bdc0;stroke-miterlimit:10;}.cls-4{stroke-width:3px;}.cls-5{stroke-width:3px;}.cls-6{fill:#fff;}</style></defs><title>dv_dat_chi_tieu</title><g id="Layer_2" data-name="Layer 2"><g id="Layer_1-2" data-name="Layer 1"><rect class="cls-1" y="37.65" width="148.67" height="137.85" rx="11.2" ry="11.2"/><polyline class="cls-2" points="24.67 67.59 32.28 77.5 48.67 62.87"/><line class="cls-3" x1="62" y1="71.5" x2="102.67" y2="71.5"/><polyline class="cls-2" points="22.67 105.25 30.28 115.17 46.67 100.53"/><line class="cls-3" x1="60" y1="109.17" x2="124" y2="109.17"/><polyline class="cls-2" points="22.67 142.92 30.28 152.83 46.67 138.2"/><line class="cls-3" x1="60" y1="146.83" x2="124" y2="146.83"/><polygon class="cls-4" points="140.17 44.5 121.67 44.5 121.67 83.5 140.17 74.5 158.67 83.5 158.67 44.5 140.17 44.5"/><circle class="cls-5" cx="139.17" cy="30" r="28.5"/><path class="cls-6" d="M140.17,18.16l3.08,5.54a1.35,1.35,0,0,0,1,.65l6.91.89a1.16,1.16,0,0,1,.74,2l-5,4.31a1.09,1.09,0,0,0-.39,1.05l1.18,6.09a1.33,1.33,0,0,1-2,1.26l-6.18-2.88a1.51,1.51,0,0,0-1.25,0L132.15,40a1.32,1.32,0,0,1-2-1.26l1.18-6.09a1.11,1.11,0,0,0-.39-1.05l-5-4.31a1.17,1.17,0,0,1,.75-2l6.91-.89a1.35,1.35,0,0,0,1-.65l3.09-5.54A1.44,1.44,0,0,1,140.17,18.16Z"/></g></g></svg>