<svg xmlns="http://www.w3.org/2000/svg" viewBox="0 0 162.58 198.23"><defs><style>.cls-1{fill:#45bdc0;}</style></defs><title>xep hang</title><g id="Layer_2" data-name="Layer 2"><g id="Layer_1-2" data-name="Layer 1"><rect class="cls-1" y="92.92" width="39.39" height="105.31" rx="4.41" ry="4.41"/><rect class="cls-1" x="61.6" y="65.67" width="39.39" height="132.55" rx="4.41" ry="4.41"/><rect class="cls-1" x="123.19" y="92.92" width="39.39" height="105.31" rx="4.41" ry="4.41"/><path class="cls-1" d="M83.58,1.26l5.86,10.51A2.59,2.59,0,0,0,91.37,13l13.1,1.68c2.1.27,2.94,2.55,1.42,3.86l-9.48,8.18a2.12,2.12,0,0,0-.74,2l2.24,11.55c.36,1.85-1.83,3.25-3.71,2.38L82.48,37.21a2.83,2.83,0,0,0-2.38,0L68.38,42.66c-1.88.87-4.07-.53-3.71-2.38l2.24-11.55a2.1,2.1,0,0,0-.74-2l-9.48-8.18C55.17,17.24,56,15,58.11,14.69L71.21,13a2.55,2.55,0,0,0,1.93-1.24L79,1.26A2.71,2.71,0,0,1,83.58,1.26Z"/></g></g></svg>