<svg width="18" height="24" viewBox="0 0 18 24" fill="none" xmlns="http://www.w3.org/2000/svg">
<g clip-path="url(#clip0)">
<path d="M14.8419 10.6345V7.14618C14.8419 5.51523 14.2162 3.95108 13.1025 2.79782C11.9888 1.64457 10.4783 0.996674 8.90323 0.996674C7.32819 0.996674 5.81766 1.64457 4.70394 2.79782C3.59022 3.95108 2.96454 5.51523 2.96454 7.14618V10.6345" stroke="#D3D3D3" stroke-width="2" stroke-miterlimit="10"/>
<path d="M16.9402 10.1362H0.86626C0.636513 10.1362 0.416177 10.2307 0.253722 10.3989C0.0912664 10.5672 0 10.7953 0 11.0332L0 14.5814C0 19.495 3.05116 23.9203 8.7396 24C14.428 24.0797 17.8065 20.1927 17.8065 14.9502V11.0332C17.8065 10.7953 17.7152 10.5672 17.5527 10.3989C17.3903 10.2307 17.1699 10.1362 16.9402 10.1362ZM9.53848 15.7375V18.1495C9.53848 18.3239 9.47155 18.4913 9.35242 18.6146C9.23329 18.738 9.07171 18.8073 8.90323 18.8073C8.73474 18.8073 8.57317 18.738 8.45403 18.6146C8.3349 18.4913 8.26797 18.3239 8.26797 18.1495V15.7375C7.9639 15.5882 7.71796 15.3361 7.5706 15.0228C7.42324 14.7095 7.38324 14.3536 7.45716 14.0136C7.53108 13.6736 7.71453 13.3698 7.97734 13.1521C8.24015 12.9345 8.56668 12.8159 8.90323 12.8159C9.23977 12.8159 9.5663 12.9345 9.82911 13.1521C10.0919 13.3698 10.2754 13.6736 10.3493 14.0136C10.4232 14.3536 10.3832 14.7095 10.2358 15.0228C10.0885 15.3361 9.84255 15.5882 9.53848 15.7375V15.7375Z" fill="#D3D3D3"/>
</g>
<defs>
<clipPath id="clip0">
<rect width="17.8065" height="24" fill="white"/>
</clipPath>
</defs>
</svg>
