<svg width="202" height="48" viewBox="0 0 202 48" fill="none" xmlns="http://www.w3.org/2000/svg">
<path d="M16.2968 28.6532C17.8024 28.6532 19.2464 29.2513 20.3111 30.316C21.3757 31.3806 21.9738 32.8246 21.9738 34.3302C21.9738 35.8359 21.3757 37.2799 20.3111 38.3445C19.2464 39.4092 17.8024 40.0073 16.2968 40.0073C14.7911 40.0073 13.3472 39.4092 12.2825 38.3445C11.2179 37.2799 10.6198 35.8359 10.6198 34.3302C10.6198 32.8246 11.2179 31.3806 12.2825 30.316C13.3472 29.2513 14.7911 28.6532 16.2968 28.6532Z" fill="url(#paint0_linear)"/>
<path d="M168.695 10.7249C166.824 10.7249 165.725 10.2608 165.725 9.00782V4.36719C165.725 3.65563 163.9 3.02141 160.837 3.02141C157.774 3.02141 155.995 3.12969 155.995 4.36719V10.926H139.97C138.423 10.926 137.634 10.7713 137.634 9.84314V8.91501H149.591C151.339 8.91501 152.809 8.91501 152.809 7.90954V6.8422H139.97C138.423 6.8422 137.634 6.68751 137.634 5.96048V5.24891H150.52C152.175 5.24891 153.985 4.84672 153.985 4.39813V3.05235H117.153C115.761 3.05235 115.761 2.04688 115.761 2.04688V1.83031C115.761 1.19609 114.029 0.5 111.229 0.5C108.429 0.5 106.016 0.995001 106.016 1.83031V2.04688C106.016 2.04688 106.016 3.05235 104.608 3.05235H92.9293C91.5526 3.05235 91.5526 2.04688 91.5526 2.04688V1.83031C91.4907 1.19609 89.7737 0.5 86.9738 0.5C84.174 0.5 81.7918 0.995001 81.7918 1.83031V2.04688C81.7918 2.04688 81.7918 3.05235 80.3841 3.05235H45.9506C44.2027 3.05235 43.2745 3.50094 43.2745 4.39813V11.916C43.2745 12.5811 44.4347 13.2463 47.2655 13.2463H66.4622C68.0091 13.2463 69.8344 12.5966 69.8344 11.9005V10.926H55.2628C53.9171 10.926 53.0044 10.7094 53.0044 9.79673V8.91501H64.8999C66.323 8.91501 68.1947 8.91501 68.1947 7.8786V6.8422H55.3402C53.9944 6.8422 53.0044 6.8422 53.0044 6.17704V5.57376H77.2594C79.7344 5.57376 81.7918 6.13063 81.7918 7.90954V11.916C81.7918 12.5347 84.0502 13.2463 86.7573 13.2463C89.4643 13.2463 91.4907 12.5656 91.4907 11.916V7.90954C91.4907 6.8886 92.7282 5.57376 95.4352 5.57376H102.118C104.345 5.57376 106.016 6.30079 106.016 7.81673V11.916C106.016 12.5347 107.748 13.2463 110.548 13.2463C113.348 13.2463 115.761 12.7358 115.761 11.916V7.81673C115.761 6.81126 117.587 5.57376 119.242 5.57376H124.269C126.017 5.57376 127.889 6.3936 127.889 7.90954V11.916C127.889 12.5347 128.724 13.2463 130.843 13.2463H177.002C179.106 13.2463 180.838 12.643 180.838 11.916V10.7249H168.695ZM40.7531 4.83126C40.7531 4.83126 41.6658 3.12969 35.633 3.05235H28.1925C26.5328 2.91537 24.8808 3.39446 23.5519 4.39813L17.9367 10.3845L12.1359 4.39813C10.458 3.38392 8.50738 2.91383 6.55168 3.05235H0.658081C0.658081 3.05235 10.4808 11.4828 11.0067 11.916C13.0788 12.922 15.3742 13.38 17.6737 13.2463C21.2625 13.2463 23.6292 12.7822 24.6192 11.916L31.0387 6.31626V11.916C31.0387 12.5502 32.5856 13.2463 35.6794 13.2463C38.7731 13.2463 40.7995 12.5811 40.7995 11.916V4.39813C40.7995 3.70204 39.0052 3.05235 35.6794 3.05235" fill="white"/>
<path d="M43.3366 20.7177H40.6605C39.7036 20.7177 38.928 21.4933 38.928 22.4502V46.2257C38.928 47.1825 39.7036 47.9582 40.6605 47.9582H43.3366C44.2934 47.9582 45.0691 47.1825 45.0691 46.2257V22.4502C45.0691 21.4933 44.2934 20.7177 43.3366 20.7177Z" fill="white"/>
<path d="M96.9665 20.7177H94.2904C93.3335 20.7177 92.5579 21.4933 92.5579 22.4502V46.2257C92.5579 47.1825 93.3335 47.9582 94.2904 47.9582H96.9665C97.9233 47.9582 98.699 47.1825 98.699 46.2257V22.4502C98.699 21.4933 97.9233 20.7177 96.9665 20.7177Z" fill="white"/>
<path d="M135.236 20.7177H109.651C109.19 20.7176 108.748 20.8997 108.42 21.2241C108.093 21.5486 107.907 21.9892 107.903 22.4502V25.1263C107.923 25.5763 108.116 26.0013 108.442 26.3126C108.767 26.6238 109.201 26.7973 109.651 26.7969H119.381V46.2257C119.381 46.6851 119.563 47.1258 119.888 47.4507C120.213 47.7756 120.654 47.9582 121.113 47.9582H123.789C124.249 47.9582 124.69 47.7756 125.015 47.4507C125.339 47.1258 125.522 46.6851 125.522 46.2257V26.7969H135.236C135.696 26.7969 136.137 26.6143 136.461 26.2894C136.786 25.9645 136.969 25.5239 136.969 25.0644V22.4502C136.969 21.9907 136.786 21.55 136.461 21.2251C136.137 20.9002 135.696 20.7177 135.236 20.7177Z" fill="white"/>
<path d="M200.205 41.8171H180.854V22.4502C180.854 21.9907 180.671 21.55 180.346 21.2251C180.021 20.9002 179.581 20.7177 179.121 20.7177H176.445C175.986 20.7177 175.545 20.9002 175.22 21.2251C174.895 21.55 174.713 21.9907 174.713 22.4502V46.2257C174.713 46.6851 174.895 47.1258 175.22 47.4507C175.545 47.7756 175.986 47.9582 176.445 47.9582H200.205C200.666 47.9582 201.108 47.7761 201.436 47.4517C201.763 47.1272 201.949 46.6866 201.953 46.2257V43.5496C201.949 43.0887 201.763 42.648 201.436 42.3235C201.108 41.9991 200.666 41.817 200.205 41.8171Z" fill="white"/>
<path d="M165.338 44.9881L152.824 21.785C152.652 21.465 152.397 21.1976 152.085 21.0112C151.773 20.8248 151.416 20.7263 151.053 20.7263C150.69 20.7263 150.333 20.8248 150.021 21.0112C149.709 21.1976 149.454 21.465 149.282 21.785L136.783 44.9881C136.616 45.2953 136.533 45.6406 136.54 45.99C136.547 46.3393 136.646 46.6807 136.825 46.9805C137.005 47.2803 137.259 47.5282 137.564 47.6996C137.869 47.871 138.212 47.9601 138.562 47.9581H141.114C141.43 47.9586 141.74 47.8741 142.013 47.7135C142.285 47.553 142.509 47.3222 142.661 47.0455L151.045 31.4375L159.46 47.061C159.613 47.3377 159.837 47.5684 160.109 47.729C160.381 47.8895 160.691 47.974 161.007 47.9736H163.575C163.925 47.9744 164.27 47.8836 164.574 47.7103C164.879 47.5369 165.133 47.2871 165.311 46.9854C165.489 46.6837 165.585 46.3408 165.59 45.9904C165.595 45.6401 165.508 45.2946 165.338 44.9881Z" fill="white"/>
<path d="M79.5486 35.5986V46.2256C79.5486 46.6892 79.3644 47.1338 79.0366 47.4616C78.7088 47.7894 78.2642 47.9736 77.8006 47.9736H67.9161C64.3791 47.8544 61.0269 46.3656 58.567 43.8215C56.107 41.2773 54.7319 37.8768 54.7319 34.3379C54.7319 30.7989 56.107 27.3985 58.567 24.8543C61.0269 22.3101 64.3791 20.8213 67.9161 20.7021H69.7723H83.3384L78.6978 24.0743L75.7587 26.2554C75.3293 26.5567 74.8274 26.7382 74.3047 26.7814H67.9161C65.9594 26.7372 64.0635 27.4625 62.636 28.8014C61.2085 30.1404 60.3633 31.986 60.2823 33.9415C60.2012 35.8969 60.8907 37.8062 62.2025 39.2586C63.5143 40.7111 65.3437 41.5909 67.2973 41.7087H73.3611V35.5212C73.3651 35.0589 73.5506 34.6166 73.8775 34.2897C74.2044 33.9628 74.6467 33.7773 75.109 33.7733H77.7697C78.0085 33.7688 78.2456 33.8133 78.4665 33.9041C78.6875 33.9948 78.8874 34.1299 79.0541 34.3009C79.2208 34.472 79.3507 34.6754 79.4357 34.8986C79.5208 35.1217 79.5592 35.36 79.5486 35.5986Z" fill="white"/>
<path d="M16.1266 41.7862H11.3313C10.2271 41.7876 9.14891 42.1218 8.23753 42.7453L0.657837 47.9428H10.2794L20.1794 40.5951C18.9761 41.3845 17.5657 41.799 16.1266 41.7862Z" fill="url(#paint1_linear)"/>
<path d="M0.657837 20.7333L8.23753 26.0391C9.1427 26.6788 10.2229 27.0245 11.3313 27.0291H16.1266C17.6252 27.0305 19.0877 27.4892 20.3186 28.3439L11.1457 20.7333H0.657837Z" fill="url(#paint2_linear)"/>
<path d="M16.328 20.7332H11.146L20.4272 28.3438C20.773 28.5855 21.0989 28.8545 21.4018 29.1482L21.4946 29.2255L21.4018 29.1482C22.1025 29.8331 22.6592 30.6512 23.0391 31.5544C23.419 32.4576 23.6144 33.4277 23.6138 34.4076C23.6147 35.4837 23.3797 36.5469 22.9253 37.5224C22.471 38.4978 21.8084 39.3619 20.9841 40.0537L21.1697 39.9144L20.9841 40.0537C20.7511 40.2464 20.5085 40.4271 20.2571 40.5951L10.3571 47.9427H16.4053C20.0103 47.9386 23.4663 46.5048 26.0154 43.9557C28.5644 41.4067 29.9983 37.9506 30.0024 34.3457C30.0024 32.5528 29.6483 30.7777 28.9603 29.1221C28.2724 27.4665 27.2641 25.9631 25.9935 24.6982C24.7229 23.4334 23.215 22.432 21.5563 21.7516C19.8976 21.0711 18.1208 20.725 16.328 20.7332Z" fill="url(#paint3_linear)"/>
<defs>
<linearGradient id="paint0_linear" x1="24.3406" y1="37.8262" x2="7.13928" y2="30.3548" gradientUnits="userSpaceOnUse">
<stop offset="0.13" stop-color="#31D57E"/>
<stop offset="0.33" stop-color="#00BCB4"/>
<stop offset="0.64" stop-color="#1896D5"/>
<stop offset="0.82" stop-color="#287CEC"/>
</linearGradient>
<linearGradient id="paint1_linear" x1="-7.04561" y1="44.9418" x2="23.5826" y2="44.0137" gradientUnits="userSpaceOnUse">
<stop stop-color="#0A4877"/>
<stop offset="0.76" stop-color="white"/>
</linearGradient>
<linearGradient id="paint2_linear" x1="28.3005" y1="24.5695" x2="3.16378" y2="24.5077" gradientUnits="userSpaceOnUse">
<stop stop-color="#0A4877"/>
<stop offset="0.02" stop-color="#144F7C"/>
<stop offset="0.19" stop-color="#5A84A4"/>
<stop offset="0.35" stop-color="#95B0C4"/>
<stop offset="0.49" stop-color="#C3D2DE"/>
<stop offset="0.62" stop-color="#E4EBF0"/>
<stop offset="0.73" stop-color="#F8FAFB"/>
<stop offset="0.8" stop-color="white"/>
</linearGradient>
<linearGradient id="paint3_linear" x1="39.0052" y1="34.3457" x2="22.8094" y2="34.3457" gradientUnits="userSpaceOnUse">
<stop offset="0.03" stop-color="#0A4877"/>
<stop offset="1" stop-color="white"/>
</linearGradient>
</defs>
</svg>
